<svg xmlns="http://www.w3.org/2000/svg" viewBox="0 0 200 200" width="800" height="800" role="img">
  <defs>
    <linearGradient id="bg" x1="0" y1="0" x2="0" y2="1">
      <stop offset="0" stop-color="#FFFFFF"/><stop offset="1" stop-color="#EEF0F4"/>
    </linearGradient>
    <radialGradient id="glow" cx="0.5" cy="0.9" r="0.7">
      <stop offset="0" stop-color="#D9A544" stop-opacity="0.20"/>
      <stop offset="1" stop-color="#D9A544" stop-opacity="0"/>
    </radialGradient>
  </defs>
  <rect width="200" height="200" fill="url(#bg)"/>
  <rect width="200" height="200" fill="url(#glow)"/>
  <g fill="none" stroke="#20242C" stroke-width="3.2" stroke-linecap="round" stroke-linejoin="round">
<path d="M62 78v-20a38 38 0 0 1 76 0v20"/>
    <path d="M54 78h92a10 10 0 0 1 10 10v82a10 10 0 0 1-10 10H54a10 10 0 0 1-10-10V88a10 10 0 0 1 10-10Z"/>
    <rect x="78" y="104" width="44" height="32" rx="6" stroke="#C08A2E"/>
    <path d="M70 78v-14M130 78v-14" stroke="#C08A2E"/>
  </g>
</svg>
